TITLE: monster_S01E03
FCM: NON-DROP FRAME

001  AX       AA/V  C        01:00:00:00 01:00:06:08 01:00:00:00 01:00:06:08
* FROM CLIP NAME: monster_S01E03_SQ0010_SH0010.mov

002  AX       AA/V  C        01:00:06:08 01:00:08:16 01:00:06:08 01:00:08:16
* FROM CLIP NAME: monster_S01E03_SQ0010_SH0020.mov

003  AX       AA/V  C        01:00:08:16 01:00:13:01 01:00:08:16 01:00:13:01
* FROM CLIP NAME: monster_S01E03_SQ0010_SH0030.mov

004  AX       AA/V  C        01:00:13:01 01:00:17:09 01:00:13:01 01:00:17:09
* FROM CLIP NAME: monster_S01E03_SQ0010_SH0040.mov

005  AX       AA/V  C        01:00:17:09 01:00:23:11 01:00:17:09 01:00:23:11
* FROM CLIP NAME: monster_S01E03_SQ0010_SH0050.mov

006  AX       AA/V  C        01:00:23:11 01:00:33:17 01:00:23:11 01:00:33:17
* FROM CLIP NAME: monster_S01E03_SQ0010_SH0060.mov

007  AX       AA/V  C        01:00:33:17 01:00:35:23 01:00:33:17 01:00:35:23
* FROM CLIP NAME: monster_S01E03_SQ0010_SH0070.mov

008  AX       AA/V  C        01:00:35:23 01:00:37:21 01:00:35:23 01:00:37:21
* FROM CLIP NAME: monster_S01E03_SQ0010_SH0080.mov

009  AX       AA/V  C        01:00:37:21 01:00:40:03 01:00:37:21 01:00:40:03
* FROM CLIP NAME: monster_S01E03_SQ0010_SH0090.mov

010  AX       AA/V  C        01:00:40:03 01:00:45:07 01:00:40:03 01:00:45:07
* FROM CLIP NAME: monster_S01E03_SQ0020_SH0100.mov

011  AX       AA/V  C        01:00:45:07 01:00:51:10 01:00:45:07 01:00:51:10
* FROM CLIP NAME: monster_S01E03_SQ0020_SH0110.mov

012  AX       AA/V  C        01:00:51:10 01:00:54:17 01:00:51:10 01:00:54:17
* FROM CLIP NAME: monster_S01E03_SQ0020_SH0120.mov

013  AX       AA/V  C        01:00:54:17 01:00:57:02 01:00:54:17 01:00:57:02
* FROM CLIP NAME: monster_S01E03_SQ0020_SH0130.mov

014  AX       AA/V  C        01:00:57:02 01:00:58:09 01:00:57:02 01:00:58:09
* FROM CLIP NAME: monster_S01E03_SQ0020_SH0140.mov

015  AX       AA/V  C        01:00:58:09 01:01:00:10 01:00:58:09 01:01:00:10
* FROM CLIP NAME: monster_S01E03_SQ0020_SH0150.mov

016  AX       AA/V  C        01:01:00:10 01:01:01:09 01:01:00:10 01:01:01:09
* FROM CLIP NAME: monster_S01E03_SQ0020_SH0160.mov

017  AX       AA/V  C        01:01:01:09 01:01:03:15 01:01:01:09 01:01:03:15
* FROM CLIP NAME: monster_S01E03_SQ0020_SH0170.mov

018  AX       AA/V  C        01:01:03:15 01:01:05:19 01:01:03:15 01:01:05:19
* FROM CLIP NAME: monster_S01E03_SQ0020_SH0180.mov

019  AX       AA/V  C        01:01:05:19 01:01:06:19 01:01:05:19 01:01:06:19
* FROM CLIP NAME: monster_S01E03_SQ0020_SH0190.mov

020  AX       AA/V  C        01:01:06:19 01:01:07:18 01:01:06:19 01:01:07:18
* FROM CLIP NAME: monster_S01E03_SQ0030_SH0200.mov

021  AX       AA/V  C        01:01:07:18 01:01:11:20 01:01:07:18 01:01:11:20
* FROM CLIP NAME: monster_S01E03_SQ0030_SH0210.mov

022  AX       AA/V  C        01:01:11:20 01:01:15:13 01:01:11:20 01:01:15:13
* FROM CLIP NAME: monster_S01E03_SQ0030_SH0220.mov

023  AX       AA/V  C        01:01:15:13 01:01:23:10 01:01:15:13 01:01:23:10
* FROM CLIP NAME: monster_S01E03_SQ0030_SH0230.mov

024  AX       AA/V  C        01:01:23:10 01:01:24:17 01:01:23:10 01:01:24:17
* FROM CLIP NAME: monster_S01E03_SQ0030_SH0240.mov

025  AX       AA/V  C        01:01:24:17 01:01:28:07 01:01:24:17 01:01:28:07
* FROM CLIP NAME: monster_S01E03_SQ0030_SH0250.mov

026  AX       AA/V  C        01:01:28:07 01:01:30:05 01:01:28:07 01:01:30:05
* FROM CLIP NAME: monster_S01E03_SQ0030_SH0260.mov

027  AX       AA/V  C        01:01:30:05 01:01:40:11 01:01:30:05 01:01:40:11
* FROM CLIP NAME: monster_S01E03_SQ0030_SH0270.mov

028  AX       AA/V  C        01:01:40:11 01:01:45:22 01:01:40:11 01:01:45:22
* FROM CLIP NAME: monster_S01E03_SQ0030_SH0280.mov

029  AX       AA/V  C        01:01:45:22 01:01:48:09 01:01:45:22 01:01:48:09
* FROM CLIP NAME: monster_S01E03_SQ0030_SH0290.mov

030  AX       AA/V  C        01:01:48:09 01:01:49:12 01:01:48:09 01:01:49:12
* FROM CLIP NAME: monster_S01E03_SQ0040_SH0300.mov

031  AX       AA/V  C        01:01:49:19 01:01:52:17 01:01:49:12 01:01:52:10
* FROM CLIP NAME: monster_S01E03_SQ0040_SH0310.mov

032  AX       AA/V  C        01:01:52:17 01:01:57:11 01:01:52:10 01:01:57:04
* FROM CLIP NAME: monster_S01E03_SQ0040_SH0320.mov

033  AX       AA/V  C        01:01:57:11 01:02:07:05 01:01:57:04 01:02:06:23
* FROM CLIP NAME: monster_S01E03_SQ0040_SH0330.mov

034  AX       AA/V  C        01:02:07:05 01:02:11:01 01:02:06:23 01:02:10:19
* FROM CLIP NAME: monster_S01E03_SQ0040_SH0340.mov

035  AX       AA/V  C        01:02:11:01 01:02:15:21 01:02:10:19 01:02:15:14
* FROM CLIP NAME: monster_S01E03_SQ0040_SH0350.mov

036  AX       AA/V  C        01:02:15:21 01:02:26:00 01:02:15:14 01:02:25:18
* FROM CLIP NAME: monster_S01E03_SQ0040_SH0360.mov

037  AX       AA/V  C        01:02:26:00 01:02:27:10 01:02:25:18 01:02:27:03
* FROM CLIP NAME: monster_S01E03_SQ0040_SH0370.mov

038  AX       AA/V  C        01:02:27:10 01:02:34:00 01:02:27:03 01:02:33:18
* FROM CLIP NAME: monster_S01E03_SQ0040_SH0380.mov

039  AX       AA/V  C        01:02:34:00 01:02:35:15 01:02:33:18 01:02:35:08
* FROM CLIP NAME: monster_S01E03_SQ0040_SH0390.mov

040  AX       AA/V  C        01:02:35:15 01:02:37:16 01:02:35:08 01:02:37:09
* FROM CLIP NAME: monster_S01E03_SQ0050_SH0400.mov

041  AX       AA/V  C        01:02:37:16 01:02:38:24 01:02:37:09 01:02:38:17
* FROM CLIP NAME: monster_S01E03_SQ0050_SH0410.mov

042  AX       AA/V  C        01:02:38:24 01:02:40:08 01:02:38:17 01:02:40:01
* FROM CLIP NAME: monster_S01E03_SQ0050_SH0420.mov

043  AX       AA/V  C        01:02:40:08 01:02:42:07 01:02:40:01 01:02:42:00
* FROM CLIP NAME: monster_S01E03_SQ0050_SH0430.mov

044  AX       AA/V  C        01:02:42:07 01:02:43:09 01:02:42:00 01:02:43:02
* FROM CLIP NAME: monster_S01E03_SQ0050_SH0440.mov

045  AX       AA/V  C        01:02:43:09 01:02:45:20 01:02:43:02 01:02:45:13
* FROM CLIP NAME: monster_S01E03_SQ0050_SH0450.mov

046  AX       AA/V  C        01:02:45:20 01:02:48:07 01:02:45:13 01:02:48:00
* FROM CLIP NAME: monster_S01E03_SQ0050_SH0460.mov

047  AX       AA/V  C        01:02:48:07 01:02:49:15 01:02:48:00 01:02:49:08
* FROM CLIP NAME: monster_S01E03_SQ0050_SH0470.mov

048  AX       AA/V  C        01:02:49:15 01:02:50:22 01:02:49:08 01:02:50:15
* FROM CLIP NAME: monster_S01E03_SQ0050_SH0480.mov

049  AX       AA/V  C        01:02:50:22 01:02:54:10 01:02:50:15 01:02:54:03
* FROM CLIP NAME: monster_S01E03_SQ0050_SH0490.mov

050  AX       AA/V  C        01:02:54:10 01:02:56:18 01:02:54:03 01:02:56:11
* FROM CLIP NAME: monster_S01E03_SQ0060_SH0500.mov

051  AX       AA/V  C        01:02:56:18 01:02:58:10 01:02:56:11 01:02:58:03
* FROM CLIP NAME: monster_S01E03_SQ0060_SH0510.mov

052  AX       AA/V  C        01:02:58:10 01:03:00:11 01:02:58:03 01:03:00:04
* FROM CLIP NAME: monster_S01E03_SQ0060_SH0520.mov

053  AX       AA/V  C        01:03:00:11 01:03:01:21 01:03:00:04 01:03:01:14
* FROM CLIP NAME: monster_S01E03_SQ0060_SH0530.mov

054  AX       AA/V  C        01:03:01:21 01:03:03:13 01:03:01:14 01:03:03:06
* FROM CLIP NAME: monster_S01E03_SQ0060_SH0540.mov

055  AX       AA/V  C        01:03:03:13 01:03:05:19 01:03:03:06 01:03:05:12
* FROM CLIP NAME: monster_S01E03_SQ0060_SH0550.mov

056  AX       AA/V  C        01:03:05:19 01:03:07:18 01:03:05:12 01:03:07:11
* FROM CLIP NAME: monster_S01E03_SQ0060_SH0560.mov

057  AX       AA/V  C        01:03:07:18 01:03:08:21 01:03:07:11 01:03:08:14
* FROM CLIP NAME: monster_S01E03_SQ0060_SH0570.mov

058  AX       AA/V  C        01:03:08:21 01:03:14:09 01:03:08:14 01:03:14:02
* FROM CLIP NAME: monster_S01E03_SQ0060_SH0580.mov

059  AX       AA/V  C        01:03:14:09 01:03:17:02 01:03:14:02 01:03:16:20
* FROM CLIP NAME: monster_S01E03_SQ0060_SH0590.mov

060  AX       AA/V  C        01:03:17:02 01:03:18:17 01:03:16:20 01:03:18:10
* FROM CLIP NAME: monster_S01E03_SQ0070_SH0600.mov

061  AX       AA/V  C        01:03:18:17 01:03:21:21 01:03:18:10 01:03:21:14
* FROM CLIP NAME: monster_S01E03_SQ0070_SH0610.mov

062  AX       AA/V  C        01:03:21:21 01:03:25:19 01:03:21:14 01:03:25:12
* FROM CLIP NAME: monster_S01E03_SQ0070_SH0620.mov

063  AX       AA/V  C        01:03:25:19 01:03:27:23 01:03:25:12 01:03:27:16
* FROM CLIP NAME: monster_S01E03_SQ0070_SH0630.mov

064  AX       AA/V  C        01:03:27:23 01:03:32:01 01:03:27:16 01:03:31:19
* FROM CLIP NAME: monster_S01E03_SQ0070_SH0640.mov

065  AX       AA/V  C        01:03:32:01 01:03:34:24 01:03:31:19 01:03:34:17
* FROM CLIP NAME: monster_S01E03_SQ0070_SH0650.mov

066  AX       AA/V  C        01:03:34:24 01:03:39:18 01:03:34:17 01:03:39:11
* FROM CLIP NAME: monster_S01E03_SQ0070_SH0660.mov

067  AX       AA/V  C        01:03:39:18 01:03:41:18 01:03:39:11 01:03:41:11
* FROM CLIP NAME: monster_S01E03_SQ0070_SH0670.mov

068  AX       AA/V  C        01:03:41:18 01:03:42:23 01:03:41:11 01:03:42:16
* FROM CLIP NAME: monster_S01E03_SQ0070_SH0680.mov

069  AX       AA/V  C        01:03:42:23 01:03:47:22 01:03:42:16 01:03:47:15
* FROM CLIP NAME: monster_S01E03_SQ0070_SH0690.mov

070  AX       AA/V  C        01:03:47:22 01:03:59:02 01:03:47:15 01:03:58:20
* FROM CLIP NAME: monster_S01E03_SQ0080_SH0700.mov

071  AX       AA/V  C        01:03:59:18 01:04:03:11 01:03:58:20 01:04:02:13
* FROM CLIP NAME: monster_S01E03_SQ0080_SH0710.mov

072  AX       AA/V  C        01:04:03:11 01:04:11:23 01:04:02:13 01:04:11:00
* FROM CLIP NAME: monster_S01E03_SQ0080_SH0720.mov

073  AX       AA/V  C        01:04:11:23 01:04:16:06 01:04:11:00 01:04:15:08
* FROM CLIP NAME: monster_S01E03_SQ0080_SH0730.mov

074  AX       AA/V  C        01:04:16:06 01:04:28:15 01:04:15:08 01:04:27:17
* FROM CLIP NAME: monster_S01E03_SQ0080_SH0740.mov

075  AX       AA/V  C        01:04:28:15 01:04:40:17 01:04:27:17 01:04:39:19
* FROM CLIP NAME: monster_S01E03_SQ0080_SH0750.mov

076  AX       AA/V  C        01:04:40:17 01:04:52:00 01:04:39:19 01:04:51:02
* FROM CLIP NAME: monster_S01E03_SQ0080_SH0760.mov
