<svg width="60" height="75" xmlns="http://www.w3.org/2000/svg" class="edl__file-icon">

 <g>
  <title>background</title>
  <rect fill="none" id="canvas_background" height="77" width="62" y="-1" x="-1"/>
 </g>
 <g>
  <title>Layer 1</title>
  <path id="svg_1" class="svg__path" d="m56.949998,24.200001c0,0 0,0 0,0l-0.1,-0.1c-0.1,-0.1 -0.1,-0.1 -0.2,-0.2l-21.3,-21.3c0,0 -0.1,-0.1 -0.1,-0.1l-0.1,0c0,0 0,0 0,0c-1.1,-1 -2.5,-1.6 -4.1,-1.6l-24.9,0c-2.3,0 -4.2,1.9 -4.2,4.2l0,64.9c0,2.3 1.9,4.2 4.2,4.2l48.2,0c2.3,0 4.2,-1.9 4.2,-4.2l0,-41.9c-0.1,-1.5 -0.6,-2.9 -1.6,-3.9zm-19.9,-17l15.1,15l-11.2,0c-2.1,0 -3.9,-1.7 -3.9,-3.9l0,-11.1zm19.4,62.7c0,1.2 -1,2.2 -2.2,2.2l-48.1,0c-1.2,0 -2.2,-1 -2.2,-2.2l0,-64.9c0,-1.2 1,-2.2 2.2,-2.2l24.9,0c1.1,0 2.1,0.4 2.8,1.2l0.1,0.1c0.7,0.7 1.2,1.7 1.2,2.8l0,11.5c0,3.2 2.6,5.9 5.9,5.9l11.7,0c1,0 2,0.4 2.7,1.1l0.1,0.1c0.7,0.7 1.1,1.6 1.1,2.7l0,41.7l-0.2,0z"/>
  <path id="svg_2" class="svg__path" d="m29.549996,53.300001c0.2,0.2 0.5,0.3 0.7,0.3s0.5,-0.1 0.7,-0.3l4.2,-4.2c0.4,-0.4 0.4,-1 0,-1.4s-1,-0.4 -1.4,0l-2.5,2.5l0,-13.4c0,-0.6 -0.4,-1 -1,-1s-1,0.4 -1,1l0,13.3l-2.5,-2.5c-0.4,-0.4 -1,-0.4 -1.4,0s-0.4,1 0,1.4l4.2,4.3z"/>
  <path stroke-width="0" id="svg_3" class="svg__path" d="m40.75,45.200001c-0.6,0 -1,0.4 -1,1l0,11.6l-19,0l0,-11.6c0,-0.6 -0.4,-1 -1,-1s-1,0.4 -1,1l0,12.6c0,0.6 0.4,1 1,1l21,0c0.6,0 1,-0.4 1,-1l0,-12.6c0,-0.5 -0.4,-1 -1,-1z"/>
 </g>
</svg>