<svg xmlns="http://www.w3.org/2000/svg" xmlns:xlink="http://www.w3.org/1999/xlink" version="1.1" 
style="enable-background:new 0 0 100 100;" 
xml:space="preserve" width="100" height="125">
<rect id="backgroundrect" width="100%" height="100%" x="0" y="0" fill="none" stroke="none"/>
<g class="currentLayer" style=""><title>Layer 1</title>
    <g id="svg_1" class="selected">
    <path d="M95.19358868740977,39.903208639736725 C95.19358868740977,39.903208639736725 95.19358868740977,39.903208639736725 95.19358868740977,39.903208639736725 l-0.16926436752283713,-0.16926436752283713 c-0.16926436752283713,-0.16926436752283713 -0.16926436752283713,-0.16926436752283713 -0.33852873504567177,-0.33852873504567177 L58.63248530247726,3.342105254804211 c0,0 -0.16926436752283713,-0.16926436752283713 -0.16926436752283713,-0.16926436752283713 L58.29395656743159,3.1728408872813736 c0,0 0,0 0,0 c-1.8619080427511931,-1.6926436752283596 -4.231609188070892,-2.7082298803653706 -6.939839068436261,-2.7082298803653706 H9.207289985809243 c-3.8930804530252203,0 -7.109103435959097,3.2160229829338776 -7.109103435959097,7.109103435959097 v109.85257452232037 c0,3.8930804530252203 3.2160229829338776,7.109103435959097 7.109103435959097,7.109103435959097 h81.58542514600678 c3.8930804530252203,0 7.109103435959097,-3.2160229829338776 7.109103435959097,-7.109103435959097 V46.504518973127304 C97.7325542002523,43.965553460284774 96.88623236263813,41.59585231496508 95.19358868740977,39.903208639736725 zM61.509979550365465,11.128266160854649 L87.06889904631366,36.51792128928001 H68.11128988375606 c-3.5545517179795487,0 -6.6013103333905905,-2.8774942478882073 -6.6013103333905905,-6.6013103333905905 V11.128266160854649 zM94.34726684979557,117.25702459767263 c0,2.0311724102740283 -1.6926436752283596,3.723816085502385 -3.723816085502385,3.723816085502385 H9.207289985809243 c-2.0311724102740283,0 -3.723816085502385,-1.6926436752283596 -3.723816085502385,-3.723816085502385 V7.404450075352269 c0,-2.0311724102740283 1.6926436752283596,-3.723816085502385 3.723816085502385,-3.723816085502385 h42.14682751318608 c1.8619080427511931,0 3.5545517179795487,0.6770574700913524 4.739402290639397,2.0311724102740283 l0.16926436752283713,0.16926436752283713 c1.1848505726598402,1.1848505726598402 2.0311724102740283,2.8774942478882073 2.0311724102740283,4.739402290639397 v19.4654022651261 c0,5.416459760730741 4.400873555593727,9.986597683847306 9.986597683847306,9.986597683847306 h19.80393100017177 c1.6926436752283596,0 3.3852873504567134,0.6770574700913524 4.5701379231165635,1.8619080427511931 l0.16926436752283713,0.16926436752283713 c1.1848505726598402,1.1848505726598402 1.8619080427511931,2.7082298803653706 1.8619080427511931,4.5701379231165635 V117.25702459767263 z" id="svg_2"/><path d="M48.815151986152785,89.15913958888189 c0.33852873504567177,0.33852873504567177 0.8463218376141792,0.507793102568519 1.1848505726598402,0.507793102568519 s0.8463218376141792,-0.16926436752283713 1.1848505726598402,-0.507793102568519 l7.109103435959097,-7.109103435959097 c0.6770574700913524,-0.6770574700913524 0.6770574700913524,-1.6926436752283596 0,-2.3697011453196986 s-1.6926436752283596,-0.6770574700913524 -2.3697011453196986,0 l-4.231609188070892,4.231609188070892 V61.230518947613994 c0,-1.0155862051370144 -0.6770574700913524,-1.6926436752283596 -1.6926436752283596,-1.6926436752283596 s-1.6926436752283596,0.6770574700913524 -1.6926436752283596,1.6926436752283596 v22.51216088053714 l-4.231609188070892,-4.231609188070892 c-0.6770574700913524,-0.6770574700913524 -1.6926436752283596,-0.6770574700913524 -2.3697011453196986,0 s-0.6770574700913524,1.6926436752283596 0,2.3697011453196986 L48.815151986152785,89.15913958888189 z" id="svg_3"/><path d="M67.77276114871037,75.4487258195322 c-1.0155862051370144,0 -1.6926436752283596,0.6770574700913524 -1.6926436752283596,1.6926436752283596 v19.634666632648937 h-32.160229829338775 V77.14136949476058 c0,-1.0155862051370144 -0.6770574700913524,-1.6926436752283596 -1.6926436752283596,-1.6926436752283596 s-1.6926436752283596,0.6770574700913524 -1.6926436752283596,1.6926436752283596 v21.327310307877294 c0,1.0155862051370144 0.6770574700913524,1.6926436752283596 1.6926436752283596,1.6926436752283596 h35.54551717979549 c1.0155862051370144,0 1.6926436752283596,-0.6770574700913524 1.6926436752283596,-1.6926436752283596 V77.14136949476058 C69.46540482393874,76.29504765714637 68.7883473538474,75.4487258195322 67.77276114871037,75.4487258195322 z" id="svg_4"/>
    </g>
    </g>
    </svg>