TITLE: monster_S01E02_15Nov
FCM: NON-DROP FRAME

001  AX       V  C        00:00:00:00 00:00:04:18 01:00:00:00 01:00:04:18
* FROM CLIP NAME: monster_S01E02_SQ0010_SH0010.mov

002  AX       V  C        00:00:00:00 00:00:02:21 01:00:04:18 01:00:07:14
* FROM CLIP NAME: monster_S01E02_SQ0010_SH0020.mov

003  AX       V  C        00:00:00:00 00:00:02:16 01:00:07:14 01:00:10:05
* FROM CLIP NAME: monster_S01E02_SQ0010_SH0030.mov

004  AX       V  C        00:00:00:00 00:00:05:04 01:00:10:05 01:00:15:09
* FROM CLIP NAME: monster_S01E02_SQ0010_SH0040.mov

005  AX       V  C        00:00:00:00 00:00:01:14 01:00:15:09 01:00:16:23
* FROM CLIP NAME: monster_S01E02_SQ0010_SH0050.mov

006  AX       V  C        00:00:00:00 00:00:02:05 01:00:16:23 01:00:19:03
* FROM CLIP NAME: monster_S01E02_SQ0010_SH0060.mov

007  AX       V  C        00:00:00:00 00:00:01:11 01:00:19:03 01:00:20:14
* FROM CLIP NAME: monster_S01E02_SQ0010_SH0070.mov

008  AX       V  C        00:00:00:00 00:00:01:04 01:00:20:14 01:00:21:18
* FROM CLIP NAME: monster_S01E02_SQ0010_SH0080.mov

009  AX       V  C        00:00:00:00 00:00:00:23 01:00:21:18 01:00:22:16
* FROM CLIP NAME: monster_S01E02_SQ0010_SH0090.mov

010  AX       V  C        00:00:00:00 00:00:00:20 01:00:22:16 01:00:23:11
* FROM CLIP NAME: monster_S01E02_SQ0020_SH0100.mov

011  AX       V  C        00:00:00:00 00:00:00:24 01:00:23:11 01:00:24:10
* FROM CLIP NAME: monster_S01E02_SQ0020_SH0110.mov

012  AX       V  C        00:00:00:00 00:00:00:24 01:00:24:10 01:00:25:09
* FROM CLIP NAME: monster_S01E02_SQ0020_SH0120.mov

013  AX       V  C        00:00:00:00 00:00:00:12 01:00:25:09 01:00:25:21
* FROM CLIP NAME: monster_S01E02_SQ0020_SH0130.mov

014  AX       V  C        00:00:00:00 00:00:00:12 01:00:25:21 01:00:26:08
* FROM CLIP NAME: monster_S01E02_SQ0020_SH0140.mov

015  AX       V  C        00:00:00:00 00:00:00:10 01:00:26:08 01:00:26:18
* FROM CLIP NAME: monster_S01E02_SQ0020_SH0150.mov

016  AX       V  C        00:00:00:00 00:00:00:17 01:00:26:18 01:00:27:10
* FROM CLIP NAME: monster_S01E02_SQ0020_SH0160.mov

017  AX       V  C        00:00:00:00 00:00:01:04 01:00:27:10 01:00:28:14
* FROM CLIP NAME: monster_S01E02_SQ0020_SH0170.mov

018  AX       V  C        00:00:00:00 00:00:03:09 01:00:28:14 01:00:31:23
* FROM CLIP NAME: monster_S01E02_SQ0020_SH0180.mov

019  AX       V  C        00:00:00:00 00:00:02:14 01:00:31:23 01:00:34:12
* FROM CLIP NAME: monster_S01E02_SQ0020_SH0190.mov

020  AX       V  C        00:00:00:00 00:00:01:17 01:00:34:12 01:00:36:04
* FROM CLIP NAME: monster_S01E02_SQ0030_SH0200.mov

021  AX       V  C        00:00:00:00 00:00:06:04 01:00:36:04 01:00:42:08
* FROM CLIP NAME: monster_S01E02_SQ0030_SH0210.mov

022  AX       V  C        00:00:00:00 00:00:02:13 01:00:42:08 01:00:44:21
* FROM CLIP NAME: monster_S01E02_SQ0030_SH0220.mov

023  AX       V  C        00:00:00:00 00:00:00:16 01:00:44:21 01:00:45:12
* FROM CLIP NAME: monster_S01E02_SQ0030_SH0230.mov

024  AX       V  C        00:00:00:00 00:00:01:17 01:00:45:12 01:00:47:04
* FROM CLIP NAME: monster_S01E02_SQ0030_SH0240.mov

025  AX       V  C        00:00:00:00 00:00:01:22 01:00:47:04 01:00:49:01
* FROM CLIP NAME: monster_S01E02_SQ0030_SH0250.mov

026  AX       V  C        00:00:00:00 00:00:05:11 01:00:49:01 01:00:54:12
* FROM CLIP NAME: monster_S01E02_SQ0030_SH0260.mov

027  AX       V  C        00:00:00:00 00:00:02:01 01:00:54:12 01:00:56:13
* FROM CLIP NAME: monster_S01E02_SQ0030_SH0270.mov

028  AX       V  C        00:00:00:00 00:00:03:01 01:00:56:13 01:00:59:14
* FROM CLIP NAME: monster_S01E02_SQ0030_SH0280.mov

029  AX       V  C        00:00:00:00 00:00:03:18 01:00:59:14 01:01:03:07
* FROM CLIP NAME: monster_S01E02_SQ0030_SH0290.mov

030  AX       V  C        00:00:00:00 00:00:02:00 01:01:03:07 01:01:05:07
* FROM CLIP NAME: monster_S01E02_SQ0040_SH0300.mov

031  AX       V  C        00:00:00:00 00:00:03:14 01:01:05:07 01:01:08:21
* FROM CLIP NAME: monster_S01E02_SQ0040_SH0310.mov

032  AX       V  C        00:00:00:00 00:00:07:01 01:01:08:21 01:01:15:22
* FROM CLIP NAME: monster_S01E02_SQ0040_SH0320.mov

033  AX       V  C        00:00:00:00 00:00:02:14 01:01:15:22 01:01:18:11
* FROM CLIP NAME: monster_S01E02_SQ0040_SH0330.mov

034  AX       V  C        00:00:00:00 00:00:06:07 01:01:18:11 01:01:24:18
* FROM CLIP NAME: monster_S01E02_SQ0040_SH0340.mov

035  AX       V  C        00:00:00:00 00:00:04:11 01:01:24:18 01:01:29:04
* FROM CLIP NAME: monster_S01E02_SQ0040_SH0350.mov

036  AX       V  C        00:00:00:00 00:00:04:02 01:01:29:04 01:01:33:06
* FROM CLIP NAME: monster_S01E02_SQ0040_SH0360.mov

037  AX       V  C        00:00:00:00 00:00:08:20 01:01:33:06 01:01:42:01
* FROM CLIP NAME: monster_S01E02_SQ0040_SH0365.mov

038  AX       V  C        00:00:00:00 00:00:02:05 01:01:42:01 01:01:44:06
* FROM CLIP NAME: monster_S01E02_SQ0040_SH0390.mov

039  AX       V  C        00:00:00:00 00:00:18:24 01:01:44:06 01:02:03:05
* FROM CLIP NAME: monster_S01E02_SQ0050_SH0400.mov

040  AX       V  C        00:00:00:00 00:00:04:03 01:02:03:05 01:02:07:08
* FROM CLIP NAME: monster_S01E02_SQ0050_SH0410.mov

041  AX       V  C        00:00:00:00 00:00:01:19 01:02:07:08 01:02:09:02
* FROM CLIP NAME: monster_S01E02_SQ0050_SH0420.mov

042  AX       V  C        00:00:00:00 00:00:03:22 01:02:09:02 01:02:12:24
* FROM CLIP NAME: monster_S01E02_SQ0050_SH0430.mov

043  AX       V  C        00:00:00:00 00:00:02:21 01:02:12:24 01:02:15:20
* FROM CLIP NAME: monster_S01E02_SQ0050_SH0440.mov

044  AX       V  C        00:00:00:00 00:00:01:21 01:02:15:20 01:02:17:16
* FROM CLIP NAME: monster_S01E02_SQ0050_SH0450.mov

045  AX       V  C        00:00:00:00 00:00:02:18 01:02:17:16 01:02:20:09
* FROM CLIP NAME: monster_S01E02_SQ0050_SH0460.mov

046  AX       V  C        00:00:00:00 00:00:02:23 01:02:20:09 01:02:23:07
* FROM CLIP NAME: monster_S01E02_SQ0050_SH0470.mov

047  AX       V  C        00:00:00:00 00:00:02:00 01:02:23:07 01:02:25:07
* FROM CLIP NAME: monster_S01E02_SQ0050_SH0480.mov

048  AX       V  C        00:00:00:00 00:00:01:23 01:02:25:07 01:02:27:05
* FROM CLIP NAME: monster_S01E02_SQ0050_SH0490.mov

049  AX       V  C        00:00:00:00 00:00:03:00 01:02:27:05 01:02:30:05
* FROM CLIP NAME: monster_S01E02_SQ0060_SH0500.mov

050  AX       V  C        00:00:00:00 00:00:02:17 01:02:30:05 01:02:32:22
* FROM CLIP NAME: monster_S01E02_SQ0060_SH0510.mov

051  AX       V  C        00:00:00:00 00:00:11:11 01:02:32:22 01:02:44:08
* FROM CLIP NAME: monster_S01E02_SQ0060_SH0520.mov

052  AX       V  C        00:00:00:00 00:00:09:20 01:02:44:08 01:02:54:03
* FROM CLIP NAME: monster_S01E02_SQ0060_SH0530.mov

053  AX       V  C        00:00:00:00 00:00:06:18 01:02:54:03 01:03:00:21
* FROM CLIP NAME: monster_S01E02_SQ0060_SH0540.mov

054  AX       V  C        00:00:00:00 00:00:02:09 01:03:00:21 01:03:03:05
* FROM CLIP NAME: monster_S01E02_SQ0060_SH0550.mov

055  AX       V  C        00:00:00:00 00:00:01:17 01:03:03:05 01:03:04:22
* FROM CLIP NAME: monster_S01E02_SQ0060_SH0560.mov

056  AX       V  C        00:00:00:00 00:00:07:04 01:03:04:22 01:03:12:01
* FROM CLIP NAME: monster_S01E02_SQ0060_SH0570.mov

057  AX       V  C        00:00:00:00 00:00:03:21 01:03:12:01 01:03:15:22
* FROM CLIP NAME: monster_S01E02_SQ0060_SH0580.mov

058  AX       V  C        00:00:00:00 00:00:09:06 01:03:15:22 01:03:25:03
* FROM CLIP NAME: monster_S01E02_SQ0060_SH0590.mov

059  AX       V  C        00:00:00:00 00:00:02:01 01:03:25:03 01:03:27:04
* FROM CLIP NAME: monster_S01E02_SQ0070_SH0600.mov

060  AX       V  C        00:00:00:00 00:00:01:05 01:03:27:04 01:03:28:09
* FROM CLIP NAME: monster_S01E02_SQ0070_SH0610.mov

061  AX       V  C        00:00:00:00 00:00:02:16 01:03:28:09 01:03:31:00
* FROM CLIP NAME: monster_S01E02_SQ0070_SH0620.mov

062  AX       V  C        00:00:00:00 00:00:02:08 01:03:31:00 01:03:33:08
* FROM CLIP NAME: monster_S01E02_SQ0070_SH0630.mov

063  AX       V  C        00:00:00:00 00:00:23:15 01:03:33:08 01:03:56:23
* FROM CLIP NAME: monster_S01E02_SQ0070_SH0640.mov

064  AX       V  C        00:00:00:00 00:00:02:00 01:03:56:23 01:03:58:23
* FROM CLIP NAME: monster_S01E02_SQ0070_SH0650.mov

065  AX       V  C        00:00:00:00 00:00:12:16 01:03:58:23 01:04:11:14
* FROM CLIP NAME: monster_S01E02_SQ0070_SH0660.mov

066  AX       V  C        00:00:00:00 00:00:12:01 01:04:11:14 01:04:23:15
* FROM CLIP NAME: monster_S01E02_SQ0070_SH0670.mov

067  AX       V  C        00:00:00:00 00:00:13:22 01:04:23:15 01:04:37:12
* FROM CLIP NAME: monster_S01E02_SQ0070_SH0680.mov

